<?xml version="1.0" standalone="no"?>
<!DOCTYPE svg PUBLIC "-//W3C//DTD SVG 20010904//EN"
 "http://www.w3.org/TR/2001/REC-SVG-20010904/DTD/svg10.dtd">
<svg version="1.0" xmlns="http://www.w3.org/2000/svg"
 width="311.000000pt" height="311.000000pt" viewBox="0 0 311.000000 311.000000"
 preserveAspectRatio="xMidYMid meet">
<metadata>
Created by potrace 1.14, written by Peter Selinger 2001-2017
</metadata>
<g transform="translate(0.000000,311.000000) scale(0.100000,-0.100000)"
fill="#000000" stroke="none">
<path d="M1573 3099 c-12 -4 -39 -58 -82 -160 -35 -85 -75 -179 -88 -210 l-25
-56 -65 -7 c-446 -46 -875 -308 -1101 -672 -65 -105 -133 -257 -146 -326 -2
-13 -9 -41 -14 -63 -29 -110 -35 -307 -15 -445 15 -99 65 -265 103 -341 59
-117 178 -288 244 -348 14 -14 26 -28 26 -33 0 -12 -66 -69 -108 -93 -35 -20
-124 -50 -167 -57 -16 -3 -20 -11 -21 -43 0 -22 2 -45 5 -50 4 -7 121 -11 331
-11 l325 -1 76 -36 c134 -62 300 -107 474 -128 79 -9 291 -13 330 -5 11 2 46
7 79 11 75 9 102 14 151 27 22 5 48 12 58 14 36 7 174 57 237 87 l65 30 410 1
c226 1 415 4 420 8 12 7 11 77 -2 88 -4 4 -35 12 -67 19 -121 23 -202 86 -258
198 l-31 63 50 72 c348 508 294 1140 -137 1589 -23 23 -86 79 -151 134 -127
107 -378 228 -563 271 -74 18 -80 21 -93 54 -8 19 -20 49 -28 65 -7 17 -43
103 -80 192 -62 148 -69 161 -95 165 -15 2 -36 1 -47 -3z"/>
</g>
</svg>
